<?xml version="1.0" standalone="no"?>
<!DOCTYPE svg PUBLIC "-//W3C//DTD SVG 20010904//EN"
 "http://www.w3.org/TR/2001/REC-SVG-20010904/DTD/svg10.dtd">
<svg version="1.0" xmlns="http://www.w3.org/2000/svg"
 width="1024.000000pt" height="1024.000000pt" viewBox="0 0 1024.000000 1024.000000"
 preserveAspectRatio="xMidYMid meet">

<g transform="translate(0.000000,1024.000000) scale(0.100000,-0.100000)"
fill="#000000" stroke="none">
<path d="M4875 7732 c-227 -116 -230 -117 -235 -152 -3 -19 -4 -1137 -2 -2483
l2 -2448 246 -120 246 -119 244 122 244 122 0 2471 0 2470 -48 32 c-65 43
-428 223 -449 223 -10 -1 -121 -54 -248 -118z m375 -227 l110 -55 0 -2319 0
-2318 -117 -58 -118 -57 -112 56 -113 56 -2 177 c-2 98 -2 1143 0 2323 l2
2145 103 52 c56 29 110 52 120 52 9 1 67 -24 127 -54z"/>
<path d="M4158 7243 l-128 -65 0 -1909 0 -1909 -115 57 -115 58 0 1788 0 1788
-22 -7 c-13 -4 -221 -106 -463 -228 l-440 -221 -3 -1466 c-2 -1166 1 -1469 10
-1476 28 -22 1397 -707 1402 -702 3 3 5 985 4 2181 l-3 2176 -127 -65z m-628
-2118 c0 -828 -3 -1505 -7 -1504 -5 0 -93 44 -198 97 l-190 97 -3 1307 -2
1308 192 98 c106 55 196 100 201 101 4 0 7 -676 7 -1504z"/>
<path d="M5964 5124 c3 -1192 8 -2169 10 -2171 3 -3 123 56 268 130 145 74
458 232 696 351 l432 217 0 1472 0 1472 -455 228 c-250 125 -457 227 -460 227
-3 0 -5 -804 -5 -1788 l0 -1787 -105 -53 c-58 -28 -110 -52 -115 -52 -7 0 -10
655 -10 1900 l0 1900 -120 60 c-66 33 -125 60 -131 60 -7 0 -9 -615 -5 -2166z
m952 1409 l194 -98 0 -1312 0 -1313 -190 -95 c-104 -52 -194 -95 -200 -95 -7
0 -10 498 -10 1505 0 828 3 1505 6 1505 3 0 93 -44 200 -97z"/>
</g>
</svg>
